<svg width="60" height="60" viewBox="0 0 60 60" fill="none" xmlns="http://www.w3.org/2000/svg">
<circle cx="30" cy="30" r="30" fill="#FC3E03"/>
<path d="M33.1494 14.8578L37.6416 31.85C37.8369 32.5336 38.0404 33.3311 38.252 34.2426C38.3171 34.5681 38.4066 35.0401 38.5205 35.6586C38.6344 36.2608 38.724 36.7409 38.7891 37.099C39.0169 36.0411 39.2204 34.9913 39.3994 33.9496C39.4971 33.4451 39.668 32.7452 39.9121 31.85L44.1113 14.8578H53.9502L43.8428 50.6H34.8096L30.3906 35.3412C30.0814 34.2019 29.821 33.1521 29.6094 32.1918C29.5931 32.0941 29.5443 31.8988 29.4629 31.6059C29.3815 31.3129 29.292 30.963 29.1943 30.5561C29.1618 30.67 29.0479 31.1501 28.8525 31.9965C28.5596 33.2986 28.2747 34.4135 27.998 35.3412L23.6523 50.6H14.5947L4.51172 14.8578H14.3506L18.4521 31.9477C18.5824 32.5173 18.7777 33.4044 19.0381 34.6088C19.2985 35.8783 19.4694 36.7735 19.5508 37.2943C19.7624 36.2852 19.9251 35.5691 20.0391 35.1459C20.332 33.8113 20.5843 32.7452 20.7959 31.9477L25.2881 14.8578H33.1494Z" fill="white"/>
</svg>
