<svg width="152" height="53" viewBox="0 0 152 53" fill="none" xmlns="http://www.w3.org/2000/svg">
<circle cx="26.5" cy="26.5" r="26.5" fill="#FC3E03"/>
<path d="M30.3936 12.8359L33.8076 25.75C33.9561 26.2695 34.1107 26.8757 34.2715 27.5684C34.321 27.8158 34.389 28.1745 34.4756 28.6445C34.5622 29.1022 34.6302 29.4671 34.6797 29.7393C34.8529 28.9352 35.0075 28.1374 35.1436 27.3457C35.2178 26.9622 35.3477 26.4303 35.5332 25.75L38.7246 12.8359H46.2021L38.5205 40H31.6553L28.2969 28.4033C28.0618 27.5374 27.8639 26.7396 27.7031 26.0098C27.6908 25.9355 27.6536 25.7871 27.5918 25.5645C27.5299 25.3418 27.4619 25.0758 27.3877 24.7666C27.363 24.8532 27.2764 25.2181 27.1279 25.8613C26.9053 26.8509 26.6888 27.6982 26.4785 28.4033L23.1758 40H16.292L8.62891 12.8359H16.1064L19.2236 25.8242C19.3226 26.2572 19.471 26.9313 19.6689 27.8467C19.8669 28.8115 19.9967 29.4919 20.0586 29.8877C20.2194 29.1208 20.3431 28.5765 20.4297 28.2549C20.6523 27.2406 20.8441 26.4303 21.0049 25.8242L24.4189 12.8359H30.3936Z" fill="white"/>
<path d="M81.8896 17.5547L84.585 27.75C84.7021 28.1602 84.8242 28.6387 84.9512 29.1855C84.9902 29.3809 85.0439 29.6641 85.1123 30.0352C85.1807 30.3965 85.2344 30.6846 85.2734 30.8994C85.4102 30.2646 85.5322 29.6348 85.6396 29.0098C85.6982 28.707 85.8008 28.2871 85.9473 27.75L88.4668 17.5547H94.3701L88.3057 39H82.8857L80.2344 29.8447C80.0488 29.1611 79.8926 28.5312 79.7656 27.9551C79.7559 27.8965 79.7266 27.7793 79.6777 27.6035C79.6289 27.4277 79.5752 27.2178 79.5166 26.9736C79.4971 27.042 79.4287 27.3301 79.3115 27.8379C79.1357 28.6191 78.9648 29.2881 78.7988 29.8447L76.1914 39H70.7568L64.707 17.5547H70.6104L73.0713 27.8086C73.1494 28.1504 73.2666 28.6826 73.4229 29.4053C73.5791 30.167 73.6816 30.7041 73.7305 31.0166C73.8574 30.4111 73.9551 29.9814 74.0234 29.7275C74.1992 28.9268 74.3506 28.2871 74.4775 27.8086L77.1729 17.5547H81.8896ZM95.9229 39V24.2051H101.138V39H95.9229ZM96.582 20.3965H96.6113C96.6113 19.8496 96.8018 19.4004 97.1826 19.0488C97.5635 18.668 98.0225 18.4775 98.5596 18.4775C99.126 18.4775 99.5898 18.6582 99.9512 19.0195C100.322 19.3809 100.508 19.8398 100.508 20.3965C100.508 20.9629 100.317 21.4316 99.9365 21.8027C99.5654 22.1836 99.1064 22.374 98.5596 22.374C98.0029 22.374 97.5342 22.1738 97.1533 21.7734C96.7725 21.4023 96.582 20.9434 96.582 20.3965ZM115.61 29.6982C115.522 28.8779 115.205 28.209 114.658 27.6914C114.111 27.1738 113.442 26.915 112.651 26.915C111.821 26.915 111.147 27.1445 110.63 27.6035C110.093 28.1211 109.756 28.8193 109.619 29.6982H115.61ZM120.752 32.6426H109.502C109.531 33.7949 109.819 34.6738 110.366 35.2793C110.933 35.9043 111.753 36.2168 112.827 36.2168C113.608 36.2168 114.277 36.0654 114.834 35.7627C115.4 35.4404 115.811 35.001 116.064 34.4443L119.99 36.0264C119.531 37.1494 118.701 38.0186 117.5 38.6338C116.309 39.2588 114.849 39.5713 113.12 39.5713C110.542 39.5713 108.472 38.8486 106.909 37.4033C105.356 35.9971 104.58 34.1172 104.58 31.7637C104.58 29.4688 105.356 27.5498 106.909 26.0068C108.462 24.4932 110.435 23.7363 112.827 23.7363C115.269 23.7363 117.197 24.5029 118.613 26.0361C119.336 26.8271 119.873 27.75 120.225 28.8047C120.576 29.8496 120.752 31.0459 120.752 32.3936V32.6426ZM123.901 39V16.2949H129.131V39H123.901ZM144.438 31.6172C144.438 30.4551 144.141 29.5469 143.545 28.8926C142.91 28.2285 142.07 27.8965 141.025 27.8965C139.971 27.8965 139.141 28.2285 138.535 28.8926C137.93 29.5566 137.627 30.4648 137.627 31.6172C137.627 32.7793 137.93 33.6924 138.535 34.3564C139.131 35.0107 139.961 35.3379 141.025 35.3379C142.08 35.3379 142.92 35.0107 143.545 34.3564C144.141 33.7021 144.438 32.7891 144.438 31.6172ZM149.067 16.2949V39H144.263V36.5977C143.599 37.6035 142.847 38.3457 142.007 38.8242C141.226 39.3223 140.308 39.5713 139.253 39.5713C137.183 39.5713 135.527 38.8486 134.287 37.4033C133.057 35.958 132.441 34.0293 132.441 31.6172C132.441 29.2734 133.062 27.3643 134.302 25.8896C135.532 24.4541 137.124 23.7363 139.077 23.7363C140.327 23.7363 141.343 23.9658 142.124 24.4248C142.876 24.8447 143.579 25.5918 144.233 26.666C144.194 26.4023 144.155 26.002 144.116 25.4648C144.077 24.8789 144.058 24.4004 144.058 24.0293V16.2949H149.067Z" fill="#FC3E03"/>
</svg>
